<svg width="40" height="40" viewBox="0 0 40 40" fill="none" xmlns="http://www.w3.org/2000/svg">
<path d="M23.15 27C23.7032 27 24.1831 26.7966 24.5899 26.3899C24.9966 25.9831 25.2 25.5032 25.2 24.95C25.2 24.3968 24.9966 23.9169 24.5899 23.5101C24.1831 23.1034 23.7032 22.9 23.15 22.9C22.5968 22.9 22.1169 23.1034 21.7101 23.5101C21.3034 23.9169 21.1 24.3968 21.1 24.95C21.1 25.5032 21.3034 25.9831 21.7101 26.3899C22.1169 26.7966 22.5968 27 23.15 27ZM21.9 20.7H24.25C24.3167 19.7333 24.4583 19.0167 24.675 18.55C24.8917 18.0833 25.4333 17.4333 26.3 16.6C27.2 15.7333 27.825 14.9767 28.175 14.3302C28.525 13.6837 28.7 12.9237 28.7 12.05C28.7 10.5206 28.175 9.27158 27.125 8.30295C26.075 7.33432 24.7 6.85 23 6.85C21.7333 6.85 20.6 7.19167 19.6 7.875C18.6 8.55833 17.8667 9.51667 17.4 10.75L19.65 11.7C20.0167 10.8667 20.475 10.2333 21.025 9.8C21.575 9.36667 22.2333 9.15 23 9.15C23.9926 9.15 24.7991 9.43333 25.4194 10C26.0398 10.5667 26.35 11.2833 26.35 12.15C26.35 12.8167 26.2 13.4 25.9 13.9C25.6 14.4 25.0667 14.9333 24.3 15.5C23.2333 16.4667 22.5667 17.2417 22.3 17.825C22.0333 18.4083 21.9 19.3667 21.9 20.7ZM9 34C8.2 34 7.5 33.7 6.9 33.1C6.3 32.5 6 31.8 6 31V3C6 2.2 6.3 1.5 6.9 0.9C7.5 0.3 8.2 0 9 0H37C37.8 0 38.5 0.3 39.1 0.9C39.7 1.5 40 2.2 40 3V31C40 31.8 39.7 32.5 39.1 33.1C38.5 33.7 37.8 34 37 34H9ZM9 31H37V3H9V31ZM3 40C2.2 40 1.5 39.7 0.9 39.1C0.3 38.5 0 37.8 0 37V6H3V37H34V40H3Z" fill="#a445ed" />
</svg>
