<svg width="40" height="37" viewBox="0 0 40 37" fill="none" xmlns="http://www.w3.org/2000/svg">
<path d="M20 36.9498L17.95 35.0998C14.4244 31.8624 11.5097 29.0698 9.2058 26.7218C6.90193 24.3738 5.06667 22.2748 3.7 20.4248C2.33333 18.5748 1.375 16.8998 0.825 15.3998C0.275 13.8998 0 12.3831 0 10.8498C0 7.84464 1.00833 5.33502 3.025 3.32095C5.04167 1.30685 7.53333 0.299805 10.5 0.299805C12.4 0.299805 14.1583 0.749805 15.775 1.6498C17.3917 2.5498 18.8 3.8498 20 5.5498C21.4 3.7498 22.8833 2.4248 24.45 1.5748C26.0167 0.724805 27.7 0.299805 29.5 0.299805C32.4667 0.299805 34.9583 1.30685 36.975 3.32095C38.9917 5.33502 40 7.84464 40 10.8498C40 12.3831 39.725 13.8998 39.175 15.3998C38.625 16.8998 37.6667 18.5748 36.3 20.4248C34.9333 22.2748 33.0981 24.3738 30.7942 26.7218C28.4903 29.0698 25.5756 31.8624 22.05 35.0998L20 36.9498ZM20 32.9998C23.3745 29.9 26.1515 27.2417 28.3309 25.0249C30.5103 22.8082 32.2417 20.8665 33.525 19.1998C34.8083 17.5331 35.7083 16.0476 36.225 14.7431C36.7417 13.4385 37 12.1432 37 10.8571C37 8.65222 36.3 6.84147 34.9 5.4248C33.5 4.00814 31.7037 3.2998 29.5112 3.2998C27.7938 3.2998 26.2042 3.8248 24.7425 4.8748C23.2808 5.9248 22.1 7.3998 21.2 9.2998H18.75C17.8833 7.43314 16.7192 5.96647 15.2575 4.8998C13.7958 3.83314 12.2062 3.2998 10.4887 3.2998C8.29625 3.2998 6.5 4.00814 5.1 5.4248C3.7 6.84147 3 8.65507 3 10.8656C3 12.1551 3.25833 13.4581 3.775 14.7748C4.29167 16.0915 5.19167 17.5915 6.475 19.2748C7.75833 20.9581 9.5 22.8998 11.7 25.0998C13.9 27.2998 16.6667 29.9331 20 32.9998Z" fill="#a445ed"/>
</svg>
